<svg width="34" height="27" viewBox="0 0 34 27" fill="none" xmlns="http://www.w3.org/2000/svg">
<g filter="url(#filter0_d_5566_3)">
<path d="M12.5 9.5C11.5893 9.5 10.7924 9.31445 10.0335 8.86914C9.27455 8.46094 8.70536 7.9043 8.28795 7.16211C7.83259 6.41992 7.64286 5.64062 7.64286 4.75C7.64286 3.89648 7.83259 3.11719 8.28795 2.375C8.70536 1.63281 9.27455 1.07617 10.0335 0.630859C10.7924 0.222656 11.5893 0 12.5 0C13.3728 0 14.1696 0.222656 14.9286 0.630859C15.6875 1.07617 16.2567 1.63281 16.7121 2.375C17.1295 3.11719 17.3571 3.89648 17.3571 4.75C17.3571 5.64062 17.1295 6.41992 16.7121 7.16211C16.2567 7.9043 15.6875 8.46094 14.9286 8.86914C14.1696 9.31445 13.3728 9.5 12.5 9.5ZM15.9152 10.6875C16.8259 10.6875 17.6607 10.9102 18.4576 11.3555C19.2165 11.8008 19.8616 12.4316 20.317 13.1738C20.7723 13.9531 21 14.7695 21 15.6602V17.2188C21 17.7383 20.8103 18.1465 20.4688 18.4805C20.0893 18.8516 19.6719 19 19.1786 19H5.82143C5.29018 19 4.87277 18.8516 4.53125 18.4805C4.15179 18.1465 4 17.7383 4 17.2188V15.6602C4 14.7695 4.22768 13.9531 4.68304 13.1738C5.13839 12.4316 5.74554 11.8008 6.54241 11.3555C7.30134 10.9102 8.17411 10.6875 9.08482 10.6875H9.72991C10.6027 11.0957 11.5134 11.2812 12.5 11.2812C13.4487 11.2812 14.3594 11.0957 15.2701 10.6875H15.9152Z" fill="url(#paint0_linear_5566_3)" shape-rendering="crispEdges"/>
<path d="M23.5 8C22.8036 8 22.1942 7.86328 21.6138 7.53516C21.0335 7.23438 20.5982 6.82422 20.279 6.27734C19.9308 5.73047 19.7857 5.15625 19.7857 4.5C19.7857 3.87109 19.9308 3.29688 20.279 2.75C20.5982 2.20312 21.0335 1.79297 21.6138 1.46484C22.1942 1.16406 22.8036 1 23.5 1C24.1674 1 24.7768 1.16406 25.3571 1.46484C25.9375 1.79297 26.3728 2.20312 26.721 2.75C27.0402 3.29688 27.2143 3.87109 27.2143 4.5C27.2143 5.15625 27.0402 5.73047 26.721 6.27734C26.3728 6.82422 25.9375 7.23438 25.3571 7.53516C24.7768 7.86328 24.1674 8 23.5 8ZM26.1116 8.875C26.808 8.875 27.4464 9.03906 28.0558 9.36719C28.6362 9.69531 29.1295 10.1602 29.4777 10.707C29.8259 11.2812 30 11.8828 30 12.5391V13.6875C30 14.0703 29.8549 14.3711 29.5938 14.6172C29.3036 14.8906 28.9844 15 28.6071 15H18.3929C17.9866 15 17.6674 14.8906 17.4062 14.6172C17.1161 14.3711 17 14.0703 17 13.6875V12.5391C17 11.8828 17.1741 11.2812 17.5223 10.707C17.8705 10.1602 18.3348 9.69531 18.9442 9.36719C19.5246 9.03906 20.192 8.875 20.8884 8.875H21.3817C22.0491 9.17578 22.7455 9.3125 23.5 9.3125C24.2254 9.3125 24.9219 9.17578 25.6183 8.875H26.1116Z" fill="url(#paint1_linear_5566_3)" shape-rendering="crispEdges"/>
</g>
<defs>
<filter id="filter0_d_5566_3" x="0" y="0" width="34" height="27" filterUnits="userSpaceOnUse" color-interpolation-filters="sRGB">
<feFlood flood-opacity="0" result="BackgroundImageFix"/>
<feColorMatrix in="SourceAlpha" type="matrix" values="0 0 0 0 0 0 0 0 0 0 0 0 0 0 0 0 0 0 127 0" result="hardAlpha"/>
<feOffset dy="4"/>
<feGaussianBlur stdDeviation="2"/>
<feComposite in2="hardAlpha" operator="out"/>
<feColorMatrix type="matrix" values="0 0 0 0 0 0 0 0 0 0 0 0 0 0 0 0 0 0 0.25 0"/>
<feBlend mode="normal" in2="BackgroundImageFix" result="effect1_dropShadow_5566_3"/>
<feBlend mode="normal" in="SourceGraphic" in2="effect1_dropShadow_5566_3" result="shape"/>
</filter>
<linearGradient id="paint0_linear_5566_3" x1="4.82394" y1="0.393572" x2="15.7514" y2="25.0298" gradientUnits="userSpaceOnUse">
<stop stop-color="#474FFF" stop-opacity="0.9"/>
<stop offset="0.112374" stop-color="#5954F9" stop-opacity="0.911237"/>
<stop offset="1" stop-color="#E37ACC"/>
</linearGradient>
<linearGradient id="paint1_linear_5566_3" x1="4.82394" y1="0.393572" x2="15.7514" y2="25.0298" gradientUnits="userSpaceOnUse">
<stop stop-color="#474FFF" stop-opacity="0.9"/>
<stop offset="0.112374" stop-color="#5954F9" stop-opacity="0.911237"/>
<stop offset="1" stop-color="#E37ACC"/>
</linearGradient>
</defs>
</svg>
